<svg width="127" height="36" viewBox="0 0 127 36" fill="none" xmlns="http://www.w3.org/2000/svg">
<path d="M14.0615 35.9999C21.8274 35.9999 28.1229 29.7044 28.1229 21.9384C28.1229 14.1725 21.8274 7.87695 14.0615 7.87695C6.29553 7.87695 0 14.1725 0 21.9384C0 29.7044 6.29553 35.9999 14.0615 35.9999Z" fill="#E22B2B"/>
<path d="M49.2589 35.9999C57.0249 35.9999 63.3204 29.7044 63.3204 21.9384C63.3204 14.1725 57.0249 7.87695 49.2589 7.87695C41.493 7.87695 35.1974 14.1725 35.1974 21.9384C35.1974 29.7044 41.493 35.9999 49.2589 35.9999Z" fill="#396BC6"/>
<path d="M31.6605 35.9984C41.6012 35.9984 49.6597 27.9399 49.6597 17.9992C49.6597 8.05852 41.6012 0 31.6605 0C21.7198 0 13.6613 8.05852 13.6613 17.9992C13.6613 27.9399 21.7198 35.9984 31.6605 35.9984Z" fill="#F2D430"/>
<path d="M35.1983 21.9458C35.1972 24.1772 35.7279 26.3768 36.7465 28.3621C37.7651 30.3475 39.2422 32.0615 41.0555 33.362C43.1141 32.1027 44.8985 30.4423 46.3025 28.4794C47.7064 26.5166 48.7012 24.2914 49.2278 21.9363C49.7544 19.5812 49.8019 17.1442 49.3675 14.7704C48.9332 12.3965 48.0259 10.1343 46.6995 8.11816C43.4692 8.71664 40.5503 10.4272 38.4494 12.953C36.3485 15.4789 35.1983 18.6605 35.1983 21.9458Z" fill="#94BE50"/>
<path d="M28.1237 21.9428C28.1231 18.6584 26.973 15.4778 24.8728 12.9527C22.7726 10.4276 19.8549 8.71718 16.6256 8.11816C15.2995 10.1341 14.3924 12.3962 13.9582 14.7698C13.524 17.1435 13.5716 19.5802 14.0981 21.9351C14.6247 24.2899 15.6194 26.5149 17.0232 28.4775C18.427 30.4402 20.2112 32.1005 22.2696 33.3597C24.0824 32.0587 25.559 30.3445 26.5771 28.359C27.5952 26.3736 28.1254 24.174 28.1237 21.9428Z" fill="#ED9846"/>
<path d="M63.3211 17.7664H0V19.8744H63.3211V17.7664Z" fill="white"/>
<path d="M63.3211 25.7117H0V27.8197H63.3211V25.7117Z" fill="white"/>
<g opacity="0.6">
<path opacity="0.6" d="M72.8234 33.9162C72.2285 33.5629 71.7539 33.0385 71.4613 32.4115C71.1292 31.6868 70.9666 30.8958 70.986 30.0988C70.966 29.306 71.1286 28.5192 71.4613 27.7992C71.7567 27.1773 72.231 26.6576 72.8234 26.3068C73.4588 25.9462 74.1803 25.7652 74.9107 25.7832C75.4588 25.7771 76.0038 25.8677 76.5205 26.0507C76.9966 26.2223 77.4292 26.4966 77.7876 26.8541L77.4188 27.603C77.0664 27.2863 76.6618 27.0329 76.223 26.8541C75.8066 26.6976 75.3648 26.6196 74.9199 26.6241C74.5151 26.6015 74.1104 26.6712 73.7365 26.8279C73.3625 26.9846 73.0291 27.2242 72.7613 27.5286C72.2071 28.2657 71.9351 29.177 71.9948 30.0973C71.9349 31.0225 72.2046 31.939 72.756 32.6844C73.0233 32.9914 73.3574 33.233 73.7327 33.3907C74.1079 33.5485 74.5143 33.6181 74.9207 33.5943C75.3653 33.6 75.8071 33.5233 76.2238 33.3682C76.6625 33.1892 77.0671 32.9358 77.4196 32.6192L77.7883 33.3682C77.4299 33.7254 76.9973 33.9994 76.5212 34.1707C76.0045 34.3538 75.4596 34.4443 74.9115 34.4382C74.181 34.457 73.4591 34.2766 72.8234 33.9162Z" fill="#151515" stroke="#151515" stroke-width="0.5" stroke-miterlimit="10"/>
<path opacity="0.6" d="M80.7954 33.9177C80.2094 33.5609 79.7435 33.0369 79.4578 32.413C79.1303 31.6916 78.9696 30.9055 78.9879 30.1134C78.9685 29.3193 79.1269 28.531 79.4517 27.8061C79.7357 27.1844 80.1998 26.6623 80.7839 26.3075C81.4154 25.9639 82.1228 25.7839 82.8417 25.7839C83.5606 25.7839 84.268 25.9639 84.8995 26.3075C85.4835 26.6625 85.9476 27.1846 86.2318 27.8061C86.5383 28.5342 86.6957 29.3163 86.6948 30.1063C86.6938 30.8962 86.5346 31.678 86.2264 32.4053C85.9378 33.0276 85.4723 33.5509 84.888 33.9101C84.2618 34.2561 83.5583 34.4381 82.8429 34.4392C82.1275 34.4403 81.4234 34.2604 80.7962 33.9162L80.7954 33.9177ZM84.9348 32.6913C85.4232 31.9171 85.6829 31.0208 85.684 30.1054C85.6851 29.1901 85.4275 28.2931 84.9409 27.5179C84.6704 27.2318 84.3443 27.004 83.9826 26.8485C83.6209 26.693 83.2312 26.6131 82.8375 26.6136C82.4438 26.6141 82.0543 26.695 81.693 26.8515C81.3317 27.0079 81.0062 27.2365 80.7364 27.5232C80.1938 28.268 79.9288 29.1792 79.9875 30.0988C79.9286 31.0237 80.1934 31.9403 80.7364 32.6913C81.0045 32.9801 81.3293 33.2106 81.6905 33.3681C82.0517 33.5257 82.4415 33.607 82.8356 33.607C83.2297 33.607 83.6195 33.5257 83.9807 33.3681C84.3419 33.2106 84.6667 32.9801 84.9348 32.6913Z" fill="#151515" stroke="#151515" stroke-width="0.5" stroke-miterlimit="10"/>
<path opacity="0.6" d="M95.2717 25.8845V34.3525H94.5106L89.397 27.538V34.3525H88.481V25.8845H89.2306L94.345 32.6991V25.8845H95.2717Z" fill="#151515" stroke="#151515" stroke-width="0.5" stroke-miterlimit="10"/>
<path opacity="0.6" d="M96.8777 33.3692L97.2464 32.6202C97.6236 32.9516 98.0593 33.2098 98.5311 33.3814C99.0225 33.5406 99.537 33.6171 100.053 33.6075C100.607 33.6421 101.158 33.503 101.629 33.2097C101.809 33.0839 101.954 32.9149 102.05 32.7184C102.147 32.5218 102.193 32.304 102.183 32.0852C102.188 31.9572 102.167 31.8295 102.121 31.71C102.075 31.5904 102.005 31.4815 101.915 31.3899C101.716 31.1986 101.476 31.0543 101.214 30.9676C100.834 30.839 100.446 30.7318 100.054 30.6464C99.5078 30.5343 98.9711 30.3792 98.4491 30.1826C98.0526 30.0332 97.7005 29.7855 97.4258 29.4629C97.1519 29.113 97.0126 28.6764 97.0333 28.2326C97.0256 27.7769 97.1595 27.3302 97.4166 26.954C97.6866 26.5718 98.0584 26.273 98.4897 26.0916C99.0034 25.8766 99.5566 25.7722 100.113 25.785C100.672 25.7805 101.228 25.8731 101.755 26.0586C102.237 26.2253 102.676 26.4977 103.039 26.8558L102.656 27.6048C102.299 27.2884 101.891 27.0351 101.449 26.8558C101.021 26.6936 100.567 26.6128 100.11 26.6175C99.5625 26.5857 99.0195 26.734 98.5641 27.0398C98.3832 27.1726 98.2376 27.3476 98.1401 27.5497C98.0425 27.7517 97.996 27.9746 98.0045 28.1988C97.9934 28.3882 98.0326 28.5771 98.1182 28.7464C98.2039 28.9156 98.3328 29.0592 98.492 29.1624C98.957 29.4307 99.4635 29.6199 99.9906 29.7219C100.72 29.8962 101.293 30.0567 101.709 30.2033C102.105 30.3373 102.462 30.566 102.749 30.8695C103.037 31.1945 103.187 31.6193 103.166 32.053C103.174 32.5012 103.039 32.9405 102.782 33.3078C102.507 33.6852 102.13 33.9762 101.695 34.1464C101.167 34.3548 100.602 34.4557 100.035 34.4431C98.8842 34.5004 97.7549 34.1163 96.8777 33.3692Z" fill="#151515" stroke="#151515" stroke-width="0.5" stroke-miterlimit="10"/>
<path opacity="0.6" d="M106.261 33.9177C105.675 33.5609 105.209 33.0369 104.923 32.413C104.595 31.6916 104.435 30.9055 104.453 30.1134C104.434 29.3193 104.592 28.531 104.917 27.8061C105.201 27.1846 105.665 26.6625 106.249 26.3075C106.881 25.9639 107.588 25.7839 108.307 25.7839C109.026 25.7839 109.733 25.9639 110.365 26.3075C110.949 26.6625 111.413 27.1846 111.697 27.8061C112.003 28.5342 112.161 29.3164 112.16 30.1063C112.159 30.8963 111.999 31.678 111.691 32.4053C111.402 33.0276 110.937 33.5509 110.352 33.9101C109.726 34.2561 109.023 34.4381 108.307 34.4392C107.592 34.4403 106.888 34.2604 106.261 33.9162V33.9177ZM110.4 32.6913C110.888 31.9171 111.148 31.0208 111.149 30.1054C111.15 29.1901 110.893 28.2931 110.406 27.5179C110.136 27.2317 109.81 27.0038 109.448 26.8483C109.086 26.6927 108.696 26.6127 108.303 26.6132C107.909 26.6137 107.519 26.6947 107.158 26.8512C106.797 27.0077 106.471 27.2364 106.202 27.5232C105.659 28.2679 105.393 29.1791 105.452 30.0988C105.393 31.0238 105.658 31.9404 106.202 32.6913C106.47 32.9801 106.794 33.2106 107.156 33.3681C107.517 33.5257 107.907 33.607 108.301 33.607C108.695 33.607 109.085 33.5257 109.446 33.3681C109.807 33.2106 110.132 32.9801 110.4 32.6913Z" fill="#151515" stroke="#151515" stroke-width="0.5" stroke-miterlimit="10"/>
<path opacity="0.6" d="M113.945 25.8845H114.92V33.5201H119.166V34.3525H113.945L113.945 25.8845Z" fill="#151515" stroke="#151515" stroke-width="0.5" stroke-miterlimit="10"/>
<path opacity="0.6" d="M120.426 25.8845H125.778V26.6932H121.389V29.6429H125.54V30.4639H121.389V33.5438H125.778V34.3525H120.426V25.8845Z" fill="#151515" stroke="#151515" stroke-width="0.5" stroke-miterlimit="10"/>
</g>
<path d="M72.9262 20.9895C72.1851 20.8098 71.4834 20.4948 70.8566 20.0605L71.8178 17.8934C72.3773 18.2491 72.9833 18.5259 73.6184 18.7159C74.2398 18.9042 74.8855 19.0002 75.5348 19.0011C76.0484 19.028 76.5612 18.9359 77.0334 18.732C77.1823 18.6765 77.3114 18.578 77.4043 18.4489C77.4971 18.3199 77.5495 18.1661 77.5547 18.0072C77.56 17.8483 77.5179 17.6915 77.4338 17.5566C77.3497 17.4217 77.2274 17.3148 77.0824 17.2495C76.5207 16.9772 75.9225 16.7877 75.3064 16.6869C74.4201 16.5383 73.5589 16.2669 72.7476 15.8805C72.2208 15.6342 71.7765 15.2407 71.4683 14.7476C71.2113 14.2613 71.0851 13.7167 71.1019 13.1669C71.0953 12.4804 71.3065 11.8095 71.7051 11.2506C72.1359 10.6571 72.7225 10.1944 73.4 9.91373C74.1886 9.58153 75.0379 9.41782 75.8935 9.43311C76.7185 9.43144 77.5393 9.54944 78.3304 9.78342C79.0039 9.95893 79.6337 10.2721 80.18 10.7033L79.2349 12.8703C78.7395 12.5197 78.196 12.2427 77.6213 12.0478C77.0757 11.861 76.5032 11.7647 75.9265 11.7626C75.46 11.7407 74.9969 11.851 74.5904 12.0808C74.4367 12.1644 74.3086 12.2881 74.2195 12.4387C74.1304 12.5893 74.0838 12.7612 74.0845 12.9362C74.0786 13.1163 74.1429 13.2917 74.2639 13.4253C74.4566 13.5995 74.6846 13.7302 74.9323 13.8085C75.4111 13.9758 75.9011 14.109 76.3987 14.2071C77.2601 14.3701 78.0961 14.647 78.8846 15.0304C79.4074 15.2789 79.8504 15.6683 80.1639 16.1549C80.4242 16.6256 80.5536 17.1573 80.5388 17.6949C80.5573 18.2137 80.4463 18.729 80.2159 19.1942C79.9854 19.6594 79.6428 20.0598 79.2188 20.3594C78.1144 21.0689 76.8128 21.4085 75.5026 21.3291C74.6326 21.3301 73.7663 21.2159 72.9262 20.9895Z" fill="#151515"/>
<path d="M84.6118 12.0622H81.1562V9.58472H91.165V12.0622H87.7079V21.1909H84.6118V12.0622Z" fill="#151515"/>
<path d="M98.7059 18.7912H93.5554L92.5283 21.1867H89.4621L94.8885 9.58276H97.3008L102.743 21.1867H99.7276L98.7059 18.7912ZM97.7093 16.4916L96.1287 12.8245L94.5481 16.4916H97.7093Z" fill="#151515"/>
<path d="M105.594 20.5902C104.713 20.1113 103.993 19.3827 103.524 18.496C103.025 17.5296 102.776 16.4536 102.799 15.3662C102.777 14.287 103.026 13.2194 103.524 12.2617C103.995 11.3787 104.714 10.6534 105.594 10.1759C106.565 9.6634 107.651 9.40795 108.748 9.43393C109.498 9.43233 110.243 9.54795 110.957 9.77658C111.589 9.96123 112.175 10.2779 112.676 10.7056L111.747 12.8726C110.905 12.2239 109.876 11.8642 108.813 11.847C108.41 11.8222 108.007 11.8892 107.635 12.043C107.262 12.1968 106.929 12.4333 106.662 12.7347C106.109 13.4964 105.844 14.4286 105.912 15.367C105.843 16.313 106.109 17.2532 106.662 18.0238C106.928 18.3274 107.26 18.566 107.633 18.7214C108.006 18.8767 108.409 18.9446 108.813 18.9199C109.875 18.902 110.904 18.5421 111.746 17.8935L112.675 20.0605C112.174 20.4881 111.588 20.8048 110.956 20.9896C110.242 21.2182 109.497 21.3338 108.747 21.3322C107.65 21.3583 106.564 21.1028 105.594 20.5902Z" fill="#151515"/>
<path d="M121.981 21.1909L117.335 15.9248V21.1909H114.269V9.58472H117.335V14.5718L121.849 9.58472H125.435L120.3 15.0931L125.614 21.1909H121.981Z" fill="#151515"/>
</svg>
