<svg width="683" height="712" viewBox="0 0 683 712" fill="none" xmlns="http://www.w3.org/2000/svg">
<rect x="5" width="630" height="712" rx="12" fill="#237BFF"/>
<rect opacity="0.8" x="5" width="630" height="712" rx="12" fill="url(#paint0_linear_0_1)"/>
<path opacity="0.07" d="M137.461 638.43V640.734C137.461 645.083 136.849 648.99 135.625 652.453C134.427 655.891 132.721 658.833 130.508 661.281C128.294 663.703 125.677 665.565 122.656 666.867C119.635 668.143 116.302 668.781 112.656 668.781C108.984 668.781 105.625 668.143 102.578 666.867C99.5573 665.565 96.9271 663.703 94.6875 661.281C92.474 658.833 90.7552 655.891 89.5312 652.453C88.3333 648.99 87.7344 645.083 87.7344 640.734V638.43C87.7344 634.081 88.3333 630.174 89.5312 626.711C90.7552 623.247 92.4609 620.305 94.6484 617.883C96.862 615.435 99.4792 613.573 102.5 612.297C105.547 610.995 108.906 610.344 112.578 610.344C116.224 610.344 119.557 610.995 122.578 612.297C125.625 613.573 128.255 615.435 130.469 617.883C132.682 620.305 134.401 623.247 135.625 626.711C136.849 630.174 137.461 634.081 137.461 638.43ZM123.555 640.734V638.352C123.555 635.539 123.307 633.065 122.812 630.93C122.344 628.768 121.641 626.958 120.703 625.5C119.766 624.042 118.607 622.948 117.227 622.219C115.872 621.464 114.323 621.086 112.578 621.086C110.755 621.086 109.167 621.464 107.812 622.219C106.458 622.948 105.326 624.042 104.414 625.5C103.503 626.958 102.812 628.768 102.344 630.93C101.901 633.065 101.68 635.539 101.68 638.352V640.734C101.68 643.521 101.901 645.995 102.344 648.156C102.812 650.292 103.503 652.102 104.414 653.586C105.352 655.07 106.497 656.19 107.852 656.945C109.232 657.701 110.833 658.078 112.656 658.078C114.401 658.078 115.951 657.701 117.305 656.945C118.659 656.19 119.792 655.07 120.703 653.586C121.641 652.102 122.344 650.292 122.812 648.156C123.307 645.995 123.555 643.521 123.555 640.734ZM192.07 611.125V668H178.398L158.281 632.609V668H144.57V611.125H158.281L178.398 646.516V611.125H192.07ZM239.883 657.453V668H209.57V657.453H239.883ZM214.453 611.125V668H200.742V611.125H214.453ZM235.977 633.703V643.898H209.57V633.703H235.977ZM240 611.125V621.711H209.57V611.125H240ZM294.727 652.883C294.727 651.997 294.596 651.203 294.336 650.5C294.076 649.771 293.594 649.094 292.891 648.469C292.188 647.844 291.172 647.219 289.844 646.594C288.542 645.943 286.823 645.266 284.688 644.562C282.188 643.729 279.779 642.792 277.461 641.75C275.143 640.682 273.073 639.445 271.25 638.039C269.427 636.607 267.982 634.94 266.914 633.039C265.846 631.112 265.312 628.872 265.312 626.32C265.312 623.872 265.859 621.672 266.953 619.719C268.047 617.74 269.57 616.06 271.523 614.68C273.503 613.273 275.82 612.206 278.477 611.477C281.133 610.721 284.036 610.344 287.188 610.344C291.354 610.344 295.026 611.073 298.203 612.531C301.406 613.964 303.906 616.008 305.703 618.664C307.526 621.294 308.438 624.406 308.438 628H294.805C294.805 626.568 294.505 625.305 293.906 624.211C293.333 623.117 292.461 622.258 291.289 621.633C290.117 621.008 288.646 620.695 286.875 620.695C285.156 620.695 283.711 620.956 282.539 621.477C281.367 621.997 280.482 622.701 279.883 623.586C279.284 624.445 278.984 625.396 278.984 626.438C278.984 627.297 279.219 628.078 279.688 628.781C280.182 629.458 280.872 630.096 281.758 630.695C282.669 631.294 283.763 631.867 285.039 632.414C286.341 632.961 287.799 633.495 289.414 634.016C292.435 634.979 295.117 636.06 297.461 637.258C299.831 638.43 301.823 639.771 303.438 641.281C305.078 642.766 306.315 644.458 307.148 646.359C308.008 648.26 308.438 650.409 308.438 652.805C308.438 655.357 307.943 657.622 306.953 659.602C305.964 661.581 304.544 663.26 302.695 664.641C300.846 665.995 298.633 667.023 296.055 667.727C293.477 668.43 290.599 668.781 287.422 668.781C284.505 668.781 281.628 668.417 278.789 667.688C275.977 666.932 273.424 665.786 271.133 664.25C268.841 662.688 267.005 660.695 265.625 658.273C264.271 655.826 263.594 652.922 263.594 649.562H277.344C277.344 651.229 277.565 652.635 278.008 653.781C278.451 654.927 279.102 655.852 279.961 656.555C280.82 657.232 281.875 657.727 283.125 658.039C284.375 658.326 285.807 658.469 287.422 658.469C289.167 658.469 290.573 658.221 291.641 657.727C292.708 657.206 293.49 656.529 293.984 655.695C294.479 654.836 294.727 653.898 294.727 652.883ZM363.633 638.43V640.734C363.633 645.083 363.021 648.99 361.797 652.453C360.599 655.891 358.893 658.833 356.68 661.281C354.466 663.703 351.849 665.565 348.828 666.867C345.807 668.143 342.474 668.781 338.828 668.781C335.156 668.781 331.797 668.143 328.75 666.867C325.729 665.565 323.099 663.703 320.859 661.281C318.646 658.833 316.927 655.891 315.703 652.453C314.505 648.99 313.906 645.083 313.906 640.734V638.43C313.906 634.081 314.505 630.174 315.703 626.711C316.927 623.247 318.633 620.305 320.82 617.883C323.034 615.435 325.651 613.573 328.672 612.297C331.719 610.995 335.078 610.344 338.75 610.344C342.396 610.344 345.729 610.995 348.75 612.297C351.797 613.573 354.427 615.435 356.641 617.883C358.854 620.305 360.573 623.247 361.797 626.711C363.021 630.174 363.633 634.081 363.633 638.43ZM349.727 640.734V638.352C349.727 635.539 349.479 633.065 348.984 630.93C348.516 628.768 347.812 626.958 346.875 625.5C345.938 624.042 344.779 622.948 343.398 622.219C342.044 621.464 340.495 621.086 338.75 621.086C336.927 621.086 335.339 621.464 333.984 622.219C332.63 622.948 331.497 624.042 330.586 625.5C329.674 626.958 328.984 628.768 328.516 630.93C328.073 633.065 327.852 635.539 327.852 638.352V640.734C327.852 643.521 328.073 645.995 328.516 648.156C328.984 650.292 329.674 652.102 330.586 653.586C331.523 655.07 332.669 656.19 334.023 656.945C335.404 657.701 337.005 658.078 338.828 658.078C340.573 658.078 342.122 657.701 343.477 656.945C344.831 656.19 345.964 655.07 346.875 653.586C347.812 652.102 348.516 650.292 348.984 648.156C349.479 645.995 349.727 643.521 349.727 640.734ZM408.32 657.453V668H379.57V657.453H408.32ZM384.453 611.125V668H370.742V611.125H384.453ZM444.023 611.125H457.734V648.273C457.734 652.701 456.81 656.451 454.961 659.523C453.112 662.57 450.521 664.875 447.188 666.438C443.854 668 439.935 668.781 435.43 668.781C430.977 668.781 427.057 668 423.672 666.438C420.312 664.875 417.682 662.57 415.781 659.523C413.906 656.451 412.969 652.701 412.969 648.273V611.125H426.719V648.273C426.719 650.617 427.057 652.531 427.734 654.016C428.411 655.474 429.401 656.542 430.703 657.219C432.005 657.896 433.581 658.234 435.43 658.234C437.305 658.234 438.88 657.896 440.156 657.219C441.432 656.542 442.396 655.474 443.047 654.016C443.698 652.531 444.023 650.617 444.023 648.273V611.125ZM493.906 611.125V668H480.195V611.125H493.906ZM511.016 611.125V621.711H463.477V611.125H511.016ZM531.406 611.125V668H517.734V611.125H531.406ZM589.18 638.43V640.734C589.18 645.083 588.568 648.99 587.344 652.453C586.146 655.891 584.44 658.833 582.227 661.281C580.013 663.703 577.396 665.565 574.375 666.867C571.354 668.143 568.021 668.781 564.375 668.781C560.703 668.781 557.344 668.143 554.297 666.867C551.276 665.565 548.646 663.703 546.406 661.281C544.193 658.833 542.474 655.891 541.25 652.453C540.052 648.99 539.453 645.083 539.453 640.734V638.43C539.453 634.081 540.052 630.174 541.25 626.711C542.474 623.247 544.18 620.305 546.367 617.883C548.581 615.435 551.198 613.573 554.219 612.297C557.266 610.995 560.625 610.344 564.297 610.344C567.943 610.344 571.276 610.995 574.297 612.297C577.344 613.573 579.974 615.435 582.188 617.883C584.401 620.305 586.12 623.247 587.344 626.711C588.568 630.174 589.18 634.081 589.18 638.43ZM575.273 640.734V638.352C575.273 635.539 575.026 633.065 574.531 630.93C574.062 628.768 573.359 626.958 572.422 625.5C571.484 624.042 570.326 622.948 568.945 622.219C567.591 621.464 566.042 621.086 564.297 621.086C562.474 621.086 560.885 621.464 559.531 622.219C558.177 622.948 557.044 624.042 556.133 625.5C555.221 626.958 554.531 628.768 554.062 630.93C553.62 633.065 553.398 635.539 553.398 638.352V640.734C553.398 643.521 553.62 645.995 554.062 648.156C554.531 650.292 555.221 652.102 556.133 653.586C557.07 655.07 558.216 656.19 559.57 656.945C560.951 657.701 562.552 658.078 564.375 658.078C566.12 658.078 567.669 657.701 569.023 656.945C570.378 656.19 571.51 655.07 572.422 653.586C573.359 652.102 574.062 650.292 574.531 648.156C575.026 645.995 575.273 643.521 575.273 640.734ZM643.789 611.125V668H630.117L610 632.609V668H596.289V611.125H610L630.117 646.516V611.125H643.789Z" fill="white"/>
<path opacity="0.07" d="M14.5352 50.3438V93H4.25195V50.3438H14.5352ZM31.1172 68.0977V76.0078H11.6055V68.0977H31.1172ZM32.7871 50.3438V58.2832H11.6055V50.3438H32.7871ZM47.9922 50.3438V93H37.7383V50.3438H47.9922ZM90.8535 50.3438V93H80.5996L65.5117 66.457V93H55.2285V50.3438H65.5117L80.5996 76.8867V50.3438H90.8535ZM132.25 70.207V87.7266C131.527 88.5273 130.414 89.3867 128.91 90.3047C127.426 91.2031 125.551 91.9746 123.285 92.6191C121.02 93.2637 118.354 93.5859 115.287 93.5859C112.455 93.5859 109.887 93.1367 107.582 92.2383C105.277 91.3203 103.295 89.9824 101.635 88.2246C99.9941 86.4473 98.7246 84.2793 97.8262 81.7207C96.9473 79.1426 96.5078 76.1934 96.5078 72.873V70.5C96.5078 67.1797 96.957 64.2305 97.8555 61.6523C98.7539 59.0742 100.014 56.9062 101.635 55.1484C103.275 53.3711 105.199 52.0234 107.406 51.1055C109.633 50.1875 112.074 49.7285 114.73 49.7285C118.656 49.7285 121.85 50.3535 124.311 51.6035C126.771 52.834 128.637 54.543 129.906 56.7305C131.176 58.8984 131.947 61.4082 132.221 64.2598H122.348C122.152 62.8535 121.781 61.6621 121.234 60.6855C120.707 59.6895 119.945 58.9375 118.949 58.4297C117.953 57.9023 116.664 57.6387 115.082 57.6387C113.852 57.6387 112.729 57.9023 111.713 58.4297C110.717 58.957 109.867 59.7578 109.164 60.832C108.461 61.8867 107.914 63.2148 107.523 64.8164C107.152 66.418 106.967 68.293 106.967 70.4414V72.873C106.967 75.002 107.143 76.8672 107.494 78.4688C107.865 80.0703 108.412 81.4082 109.135 82.4824C109.877 83.5371 110.814 84.3379 111.947 84.8848C113.1 85.4121 114.457 85.6758 116.02 85.6758C117.113 85.6758 118.051 85.5879 118.832 85.4121C119.613 85.2168 120.258 84.9824 120.766 84.709C121.293 84.416 121.693 84.1426 121.967 83.8887V77.2676H114.818V70.207H132.25ZM167.611 85.0898V93H144.877V85.0898H167.611ZM148.539 50.3438V93H138.256V50.3438H148.539ZM164.682 67.2773V74.9238H144.877V67.2773H164.682ZM167.699 50.3438V58.2832H144.877V50.3438H167.699ZM171.83 50.3438H188.617C191.898 50.3438 194.75 50.832 197.172 51.8086C199.594 52.7852 201.459 54.2305 202.768 56.1445C204.096 58.0586 204.76 60.4219 204.76 63.2344C204.76 65.6758 204.379 67.7168 203.617 69.3574C202.855 70.998 201.791 72.3555 200.424 73.4297C199.076 74.4844 197.504 75.3535 195.707 76.0371L192.338 77.9414H178.246L178.188 70.002H188.617C189.926 70.002 191.01 69.7676 191.869 69.2988C192.729 68.8301 193.373 68.166 193.803 67.3066C194.252 66.4277 194.477 65.3828 194.477 64.1719C194.477 62.9414 194.252 61.8867 193.803 61.0078C193.354 60.1289 192.689 59.4551 191.811 58.9863C190.951 58.5176 189.887 58.2832 188.617 58.2832H182.113V93H171.83V50.3438ZM195.18 93L185.746 74.1328L196.645 74.0742L206.195 92.5605V93H195.18ZM230.16 50.3438V93H219.877V50.3438H230.16ZM242.992 50.3438V58.2832H207.338V50.3438H242.992ZM258.285 50.3438V93H248.031V50.3438H258.285ZM282.543 78.5273H271.938V70.5879H282.543C283.988 70.5879 285.16 70.3438 286.059 69.8555C286.957 69.3672 287.611 68.6934 288.021 67.834C288.451 66.9551 288.666 65.9688 288.666 64.875C288.666 63.7031 288.451 62.6191 288.021 61.623C287.611 60.627 286.957 59.8262 286.059 59.2207C285.16 58.5957 283.988 58.2832 282.543 58.2832H275.805V93H265.521V50.3438H282.543C285.961 50.3438 288.9 50.9688 291.361 52.2188C293.842 53.4688 295.746 55.1875 297.074 57.375C298.402 59.543 299.066 62.0234 299.066 64.8164C299.066 67.5703 298.402 69.9727 297.074 72.0234C295.746 74.0742 293.842 75.6758 291.361 76.8281C288.9 77.9609 285.961 78.5273 282.543 78.5273ZM22.3281 119.309L11.9277 153H0.882812L16.5566 110.344H23.5586L22.3281 119.309ZM30.9414 153L20.5117 119.309L19.1641 110.344H26.2539L42.0156 153H30.9414ZM30.5312 137.092V145.031H8.64648V137.092H30.5312ZM68.7637 138.557H79.0176C78.8809 141.525 78.0801 144.143 76.6152 146.408C75.1504 148.674 73.1191 150.441 70.5215 151.711C67.9434 152.961 64.8965 153.586 61.3809 153.586C58.5293 153.586 55.9805 153.107 53.7344 152.15C51.5078 151.193 49.6133 149.816 48.0508 148.02C46.5078 146.223 45.3262 144.045 44.5059 141.486C43.7051 138.928 43.3047 136.047 43.3047 132.844V130.529C43.3047 127.326 43.7246 124.445 44.5645 121.887C45.4238 119.309 46.6348 117.121 48.1973 115.324C49.7793 113.508 51.6738 112.121 53.8809 111.164C56.0879 110.207 58.5391 109.729 61.2344 109.729C64.9453 109.729 68.0801 110.393 70.6387 111.721C73.1973 113.049 75.1797 114.875 76.5859 117.199C77.9922 119.504 78.8223 122.131 79.0762 125.08H68.8223C68.7832 123.479 68.5098 122.141 68.002 121.066C67.4941 119.973 66.6934 119.152 65.5996 118.605C64.5059 118.059 63.0508 117.785 61.2344 117.785C59.9648 117.785 58.8613 118.02 57.9238 118.488C56.9863 118.957 56.2051 119.699 55.5801 120.715C54.9551 121.73 54.4863 123.049 54.1738 124.67C53.8809 126.271 53.7344 128.205 53.7344 130.471V132.844C53.7344 135.109 53.8711 137.043 54.1445 138.645C54.418 140.246 54.8574 141.555 55.4629 142.57C56.0684 143.586 56.8496 144.338 57.8066 144.826C58.7832 145.295 59.9746 145.529 61.3809 145.529C62.9434 145.529 64.2617 145.285 65.3359 144.797C66.4102 144.289 67.2402 143.527 67.8262 142.512C68.4121 141.477 68.7246 140.158 68.7637 138.557ZM108.139 138.557H118.393C118.256 141.525 117.455 144.143 115.99 146.408C114.525 148.674 112.494 150.441 109.896 151.711C107.318 152.961 104.271 153.586 100.756 153.586C97.9043 153.586 95.3555 153.107 93.1094 152.15C90.8828 151.193 88.9883 149.816 87.4258 148.02C85.8828 146.223 84.7012 144.045 83.8809 141.486C83.0801 138.928 82.6797 136.047 82.6797 132.844V130.529C82.6797 127.326 83.0996 124.445 83.9395 121.887C84.7988 119.309 86.0098 117.121 87.5723 115.324C89.1543 113.508 91.0488 112.121 93.2559 111.164C95.4629 110.207 97.9141 109.729 100.609 109.729C104.32 109.729 107.455 110.393 110.014 111.721C112.572 113.049 114.555 114.875 115.961 117.199C117.367 119.504 118.197 122.131 118.451 125.08H108.197C108.158 123.479 107.885 122.141 107.377 121.066C106.869 119.973 106.068 119.152 104.975 118.605C103.881 118.059 102.426 117.785 100.609 117.785C99.3398 117.785 98.2363 118.02 97.2988 118.488C96.3613 118.957 95.5801 119.699 94.9551 120.715C94.3301 121.73 93.8613 123.049 93.5488 124.67C93.2559 126.271 93.1094 128.205 93.1094 130.471V132.844C93.1094 135.109 93.2461 137.043 93.5195 138.645C93.793 140.246 94.2324 141.555 94.8379 142.57C95.4434 143.586 96.2246 144.338 97.1816 144.826C98.1582 145.295 99.3496 145.529 100.756 145.529C102.318 145.529 103.637 145.285 104.711 144.797C105.785 144.289 106.615 143.527 107.201 142.512C107.787 141.477 108.1 140.158 108.139 138.557ZM152.611 145.09V153H129.877V145.09H152.611ZM133.539 110.344V153H123.256V110.344H133.539ZM149.682 127.277V134.924H129.877V127.277H149.682ZM152.699 110.344V118.283H129.877V110.344H152.699ZM178.803 141.662C178.803 140.998 178.705 140.402 178.51 139.875C178.314 139.328 177.953 138.82 177.426 138.352C176.898 137.883 176.137 137.414 175.141 136.945C174.164 136.457 172.875 135.949 171.273 135.422C169.398 134.797 167.592 134.094 165.854 133.312C164.115 132.512 162.562 131.584 161.195 130.529C159.828 129.455 158.744 128.205 157.943 126.779C157.143 125.334 156.742 123.654 156.742 121.74C156.742 119.904 157.152 118.254 157.973 116.789C158.793 115.305 159.936 114.045 161.4 113.01C162.885 111.955 164.623 111.154 166.615 110.607C168.607 110.041 170.785 109.758 173.148 109.758C176.273 109.758 179.027 110.305 181.41 111.398C183.812 112.473 185.688 114.006 187.035 115.998C188.402 117.971 189.086 120.305 189.086 123H178.861C178.861 121.926 178.637 120.979 178.188 120.158C177.758 119.338 177.104 118.693 176.225 118.225C175.346 117.756 174.242 117.521 172.914 117.521C171.625 117.521 170.541 117.717 169.662 118.107C168.783 118.498 168.119 119.025 167.67 119.689C167.221 120.334 166.996 121.047 166.996 121.828C166.996 122.473 167.172 123.059 167.523 123.586C167.895 124.094 168.412 124.572 169.076 125.021C169.76 125.471 170.58 125.9 171.537 126.311C172.514 126.721 173.607 127.121 174.818 127.512C177.084 128.234 179.096 129.045 180.854 129.943C182.631 130.822 184.125 131.828 185.336 132.961C186.566 134.074 187.494 135.344 188.119 136.77C188.764 138.195 189.086 139.807 189.086 141.604C189.086 143.518 188.715 145.217 187.973 146.701C187.23 148.186 186.166 149.445 184.779 150.48C183.393 151.496 181.732 152.268 179.799 152.795C177.865 153.322 175.707 153.586 173.324 153.586C171.137 153.586 168.979 153.312 166.85 152.766C164.74 152.199 162.826 151.34 161.107 150.188C159.389 149.016 158.012 147.521 156.977 145.705C155.961 143.869 155.453 141.691 155.453 139.172H165.766C165.766 140.422 165.932 141.477 166.264 142.336C166.596 143.195 167.084 143.889 167.729 144.416C168.373 144.924 169.164 145.295 170.102 145.529C171.039 145.744 172.113 145.852 173.324 145.852C174.633 145.852 175.688 145.666 176.488 145.295C177.289 144.904 177.875 144.396 178.246 143.771C178.617 143.127 178.803 142.424 178.803 141.662ZM216.361 141.662C216.361 140.998 216.264 140.402 216.068 139.875C215.873 139.328 215.512 138.82 214.984 138.352C214.457 137.883 213.695 137.414 212.699 136.945C211.723 136.457 210.434 135.949 208.832 135.422C206.957 134.797 205.15 134.094 203.412 133.312C201.674 132.512 200.121 131.584 198.754 130.529C197.387 129.455 196.303 128.205 195.502 126.779C194.701 125.334 194.301 123.654 194.301 121.74C194.301 119.904 194.711 118.254 195.531 116.789C196.352 115.305 197.494 114.045 198.959 113.01C200.443 111.955 202.182 111.154 204.174 110.607C206.166 110.041 208.344 109.758 210.707 109.758C213.832 109.758 216.586 110.305 218.969 111.398C221.371 112.473 223.246 114.006 224.594 115.998C225.961 117.971 226.645 120.305 226.645 123H216.42C216.42 121.926 216.195 120.979 215.746 120.158C215.316 119.338 214.662 118.693 213.783 118.225C212.904 117.756 211.801 117.521 210.473 117.521C209.184 117.521 208.1 117.717 207.221 118.107C206.342 118.498 205.678 119.025 205.229 119.689C204.779 120.334 204.555 121.047 204.555 121.828C204.555 122.473 204.73 123.059 205.082 123.586C205.453 124.094 205.971 124.572 206.635 125.021C207.318 125.471 208.139 125.9 209.096 126.311C210.072 126.721 211.166 127.121 212.377 127.512C214.643 128.234 216.654 129.045 218.412 129.943C220.189 130.822 221.684 131.828 222.895 132.961C224.125 134.074 225.053 135.344 225.678 136.77C226.322 138.195 226.645 139.807 226.645 141.604C226.645 143.518 226.273 145.217 225.531 146.701C224.789 148.186 223.725 149.445 222.338 150.48C220.951 151.496 219.291 152.268 217.357 152.795C215.424 153.322 213.266 153.586 210.883 153.586C208.695 153.586 206.537 153.312 204.408 152.766C202.299 152.199 200.385 151.34 198.666 150.188C196.947 149.016 195.57 147.521 194.535 145.705C193.52 143.869 193.012 141.691 193.012 139.172H203.324C203.324 140.422 203.49 141.477 203.822 142.336C204.154 143.195 204.643 143.889 205.287 144.416C205.932 144.924 206.723 145.295 207.66 145.529C208.598 145.744 209.672 145.852 210.883 145.852C212.191 145.852 213.246 145.666 214.047 145.295C214.848 144.904 215.434 144.396 215.805 143.771C216.176 143.127 216.361 142.424 216.361 141.662Z" fill="white"/>
<rect x="484" y="75" width="199" height="336" rx="12" fill="white" fill-opacity="0.08"/>
<rect x="552" y="88" width="64" height="5" rx="2.5" fill="#237BFE"/>
<defs>
<linearGradient id="paint0_linear_0_1" x1="320" y1="712" x2="320" y2="57.4335" gradientUnits="userSpaceOnUse">
<stop stop-opacity="0.3"/>
<stop offset="1" stop-opacity="0"/>
</linearGradient>
</defs>
</svg>
